<?xml version="1.0" encoding="UTF-8"?>
<!DOCTYPE svg PUBLIC "-//W3C//DTD SVG 1.1//EN" "http://www.w3.org/Graphics/SVG/1.1/DTD/svg11.dtd">
<!-- Creator: CorelDRAW 2019 (64-Bit) -->
<svg fill="#61695C" xmlns="http://www.w3.org/2000/svg" xml:space="preserve" width="181.135mm" height="53.2847mm" version="1.1" style="shape-rendering:geometricPrecision; text-rendering:geometricPrecision; image-rendering:optimizeQuality; fill-rule:evenodd; clip-rule:evenodd"
viewBox="0 0 181.0538 53.2607"
 xmlns:xlink="http://www.w3.org/1999/xlink"
 xmlns:xodm="http://www.corel.com/coreldraw/odm/2003">
 <defs>
  <style type="text/css">
   <![CDATA[
    .fil2 {fill:#61695C}
    .fil1 {fill:#61695C}
    .fil0 {fill:#61695C}
   ]]>
  </style>
 </defs>
 <g id="Layer_x0020_1">
  <metadata id="CorelCorpID_0Corel-Layer"/>
  <g id="_742923872">
   <path class="fil0" d="M178.2958 12.096c-3.092,-3.7496 -8.5487,-5.8996 -14.9666,-5.8996 -6.7907,0 -12.9029,2.309 -17.1368,6.0564l0.6905 -4.3266 -1.8366 -0.5459c-2.5987,-0.7744 -5.4839,-1.184 -8.3446,-1.184 -4.9162,0 -9.6177,1.5198 -13.4152,4.0246l1.0928 -3.6019 -29.3969 0 -0.3489 1.1504c-2.6119,-1.0505 -5.485,-1.5731 -8.7226,-1.5731 -6.0522,0 -12.6027,2.3484 -16.0038,6.8709 -0.2229,-0.331 -0.4562,-0.6572 -0.7153,-0.9713 -3.0936,-3.7496 -8.5491,-5.8996 -14.9677,-5.8996 -6.5896,0 -12.5483,2.1722 -16.7635,5.7275l1.6407 -9.977 -1.8645 -0.539c-3.1843,-0.9207 -6.7232,-1.4079 -10.2346,-1.4079 -12.8819,0 -24.6072,8.1885 -26.693,18.6407 -0.8873,4.4468 0.1494,8.7543 2.9172,12.13 2.3595,2.8764 5.8442,4.9267 9.9837,5.9746l-12.7631 0 0 16.3247 65.0126 0 0.1009 -0.1996 0.0121 0.1996 7.8259 0 1.0609 -1.7298 -0.3283 1.7298 17.6928 0 0.2598 -1.3641c1.5547,1.0066 3.5732,1.5541 5.898,1.5541 2.0772,0 4.0052,-0.4307 5.6661,-1.1966l-0.1905 1.0065 24.8069 0 0.0428 -0.2217c1.1503,0.2597 2.3586,0.4123 3.5124,0.4123 0.7011,0 1.4234,-0.0629 2.1416,-0.1895l9.4579 0 0.7015 -1.4903 0.6311 0 0.1917 1.4903 29.171 0 1.45 -7.6386 -0.5325 0 0.2 -1.0498 0.3812 0 1.4513 -7.6375 -0.8067 0c0.6581,-0.5954 1.1378,-1.3604 1.3026,-2.2309 0.1959,-1.034 -0.0717,-2.0862 -0.7351,-2.8859 -0.1729,-0.2074 -0.3703,-0.389 -0.5838,-0.5527 2.315,-2.3771 3.9189,-5.2534 4.5421,-8.4868 0.7622,-3.9664 -0.0961,-7.5952 -2.488,-10.4932zm-16.8774 32.765l0 0 -0.8946 0 1.3515 -7.1022c0.308,-0.0395 0.6148,-0.0845 0.9189,-0.1323l-1.3758 7.2345zm-20.8774 -23.1038l0 0c-0.092,0.4747 -0.1569,0.9429 -0.2042,1.4048 -1.9676,1.3171 -3.8121,1.9394 -5.7852,1.9394 -1.3351,0 -2.491,-0.4356 -3.0924,-1.1656 -0.3425,-0.4143 -0.4576,-0.8784 -0.3509,-1.4174 0.3509,-1.8191 2.8189,-3.415 5.2799,-3.415 1.5391,0 2.9851,0.5444 4.404,1.6577 -0.0891,0.3299 -0.1864,0.6583 -0.2512,0.9961zm1.9932 14.987l0 0 -0.9595 1.5832 -0.7999 -0.4476c-0.5258,-0.2952 -1.0907,-0.5226 -1.6717,-0.7201 0.4256,-0.1019 0.8244,-0.2159 1.1703,-0.3421l1.1203 -0.4064 1.1014 -4.8264c0.1486,0.2075 0.2906,0.4196 0.4555,0.6187 1.6608,2.0127 4.054,3.552 6.9433,4.5398l-7.3596 0.001zm9.7422 0.6678l0 0 -0.3825 2.0091 -0.5312 -2.2314c0.3015,0.0782 0.6027,0.1547 0.9137,0.2223zm9.3609 -18.0973l0 0c1.1987,0 2.1204,0.3183 2.5987,0.8964 0.4393,0.5327 0.423,1.2115 0.3299,1.6887 -0.3826,1.9678 -2.4028,3.343 -4.9205,3.343 -1.2242,0 -2.1932,-0.3237 -2.6581,-0.8869 -0.3203,-0.39 -0.4163,-0.9375 -0.2826,-1.6273 0.3258,-1.6967 2.1258,-3.414 4.9326,-3.414zm-55.3623 18.8961l0 0c-0.3446,-0.2334 -0.7195,-0.4392 -1.1107,-0.625l1.2305 0 -0.1198 0.625zm-6.7686 6.6486l0 0c-0.1589,0.1415 -0.417,0.2359 -0.7163,0.2534 0.153,-0.1314 0.3931,-0.2401 0.7163,-0.2534zm-1.9235 -25.361l0 0 -1.4602 4.8059c-0.0939,-1.2833 -0.4934,-2.45 -1.1946,-3.4883 -0.2894,-0.4249 -0.634,-0.8119 -1.0135,-1.1798l3.6683 -0.1378zm-42.1235 2.4003l0 0c-0.3805,1.9689 -2.4038,3.3441 -4.92,3.3441 -1.224,0 -2.1932,-0.3237 -2.6578,-0.8869 -0.3225,-0.39 -0.4171,-0.9375 -0.2834,-1.6273 0.3279,-1.6972 2.1279,-3.414 4.9336,-3.414 1.1984,0 2.1221,0.3183 2.5992,0.8964 0.4376,0.5327 0.4202,1.212 0.3284,1.6876zm16.8723 15.6269l0 0 -0.0475 0.1009 -0.0097 -0.11c0.0192,0.0022 0.0377,0.0059 0.0572,0.0091zm21.7223 -6.3985l0 0 -1.7052 5.6172 -6.5472 0c3.3469,-1.1048 6.3477,-2.9568 8.2524,-5.6172zm0.7104 6.4587l0 0 0.3648 0c-0.1352,0.057 -0.267,0.1149 -0.3975,0.1758l0.0327 -0.1758zm-70.4426 -14.7342l0 0c-1.869,0 -3.4872,-0.6139 -4.3308,-1.6413 -0.4879,-0.5943 -0.6514,-1.2526 -0.5003,-2.0118 0.4881,-2.4445 3.7478,-4.5097 7.1177,-4.5097 2.2752,0 4.383,0.8542 6.4412,2.5977 -0.5441,1.0162 -0.9769,2.0814 -1.2916,3.1916 -2.5143,1.6095 -4.8893,2.3734 -7.4362,2.3734zm38.5133 11.5737l0 0 2.1267 0.9576c1.1757,0.5289 2.4816,0.9808 3.8484,1.3625l-3.9565 0 -0.4244 0.8487 -0.0538 -0.8487 -6.8415 0c1.9131,-0.5876 3.6899,-1.3694 5.3011,-2.3201zm51.8406 10.4357l0 0 1.5431 -8.1167 -7.4897 0 5.2482 -17.296 1.6006 0.0613c-0.2951,0.7897 -0.5445,1.5942 -0.7059,2.4241 -0.7464,3.8598 0.1606,7.5856 2.5576,10.4889 1.5794,1.9141 3.7479,3.368 6.2855,4.3208l-6.6 0 -1.5442 8.1172 -0.8952 0.0005zm-83.4228 -8.7238l0 0 1.1275 -0.3969 0.986 -4.1884c0.1573,0.2197 0.3047,0.4425 0.4788,0.6526 1.6608,2.0128 4.0537,3.5522 6.9428,4.5398l-11.9448 0c0.9031,-0.1695 1.7341,-0.37 2.4098,-0.607zm135.3872 0.607l0 0c0.9704,-0.2993 1.904,-0.6456 2.8014,-1.0399 0.1324,0.3157 0.292,0.6208 0.5135,0.889 0.0473,0.0559 0.1095,0.0988 0.1595,0.1509l-3.4744 0z"/>
   <path class="fil1" d="M62.3236 38.9303l0.4512 7.1343 0.114 0c0.2335,-0.7289 0.4931,-1.4896 0.8573,-2.2034l2.4589 -4.9309 3.9955 0 0.6038 7.1343 0.1146 0c0.208,-0.6979 0.4423,-1.4279 0.7618,-2.1083l2.4012 -5.026 5.4226 0 -7.3329 11.9539 -4.5472 0 -0.4013 -6.5004 -0.1709 0c-0.1742,0.6198 -0.3273,1.221 -0.6102,1.8075l-2.3379 4.6929 -4.4342 0 -2.7504 -11.9539 5.4041 0z"/>
   <polygon class="fil1" points="79.124,38.9303 84.1467,38.9303 83.3818,42.9569 86.5777,42.9569 87.3437,38.9303 92.3663,38.9303 90.0951,50.8842 85.0726,50.8842 85.8613,46.7308 82.6644,46.7308 81.8757,50.8842 76.853,50.8842 "/>
   <path class="fil1" d="M107.0773 44.9387c-0.7288,3.8367 -4.7244,6.135 -9.0985,6.135 -4.3771,0 -7.4991,-2.2989 -6.7695,-6.135 0.7137,-3.7576 4.7556,-6.199 9.1122,-6.199 4.3566,0 7.4685,2.4414 6.7558,6.199zm-10.6282 0.0628l0 0c-0.2604,1.3636 0.6661,2.2995 2.245,2.2995 1.5801,0 2.8611,-0.9359 3.1215,-2.2995 0.2401,-1.2691 -0.5844,-2.3301 -2.2403,-2.3301 -1.6578,0.0011 -2.8862,1.062 -3.1262,2.3301zm11.7707 -6.0712l0 0 -2.272 11.9528 9.5894 0 0.7301 -3.8355 -4.3771 0 1.5436 -8.1173 -5.214 0zm20.381 7.6727l0 0 0.2324 0.1752c0.817,0.6023 1.8459,1.0938 3.0457,1.0938 0.5137,0 1.3652,-0.1753 1.4675,-0.7131 0.1024,-0.5386 -0.5732,-0.586 -1.032,-0.6663l-1.0177 -0.1578c-1.9796,-0.3019 -3.4998,-1.3012 -3.1462,-3.171 0.5412,-2.8373 3.9422,-4.4231 7.0632,-4.4231 1.6352,0 3.0771,0.3336 4.3475,1.0462l-1.9893 3.0606c-0.7973,-0.5073 -1.7312,-0.9042 -2.8534,-0.9042 -0.4562,0 -1.1503,0.1409 -1.241,0.633 -0.0857,0.4433 0.5485,0.5072 0.9337,0.5868l1.1392 0.2218c2.127,0.4134 3.5392,1.3946 3.1541,3.4244 -0.5433,2.8537 -3.9321,4.2643 -7.0329,4.2643 -1.8064,0 -3.8224,-0.4122 -5.3094,-1.0937l2.2387 -3.377z"/>
   <path class="fil1" d="M146.5114 46.5555l-0.2082 -2.1089c-0.0568,-0.5072 -0.0527,-1.0299 -0.0499,-1.5381l-0.1907 0 -1.6419 3.6471 2.0907 0zm-4.5394 4.3286l0 0 -5.5163 0 7.2569 -11.9539 5.765 0 2.846 11.9539 -5.5177 0 -0.192 -1.4902 -3.9378 0 -0.7041 1.4902z"/>
   <path class="fil1" d="M154.1602 38.9303l5.2137 0 -1.5433 8.1173 4.3771 0 -0.7297 3.8355 -9.5895 0 2.2717 -11.9528zm10.5569 0l0 0 9.6476 0 -0.6202 3.2665 -4.3975 0 -0.2161 1.1418 4.0135 0 -0.5892 3.1076 -4.0148 0 -0.2217 1.1725 4.5475 0 -0.6217 3.2655 -9.7989 0 2.2717 -11.9539z"/>
   <path class="fil2" d="M93.9833 17.447l6.5827 -0.2471 -5.5237 18.2003 11.8107 0 5.5213 -18.2003 6.4342 0.2471 2.622 -8.6414 -24.8273 0 -2.6199 8.6414zm-24.4546 4.7256l0 0c-1.6519,8.5344 -10.6998,13.65 -20.6138,13.65 -9.9133,0 -16.9836,-5.1147 -15.332,-13.65 1.617,-8.36 10.7709,-13.7904 20.6414,-13.7904 9.8692,0 16.9214,5.4315 15.3044,13.7904zm-24.078 0.1415l0 0c-0.5858,3.0331 1.5124,5.1146 5.0879,5.1146 3.5769,0 6.4797,-2.0804 7.0662,-5.1146 0.5464,-2.8216 -1.3245,-5.1838 -5.0741,-5.1838 -3.7494,-0.0016 -6.5342,2.3621 -7.08,5.1838z"/>
   <path class="fil2" d="M65.8583 33.3885c3.3705,1.515 7.934,2.4341 12.0283,2.4341 7.0262,0 14.7015,-3.1389 15.9292,-9.4881 0.8733,-4.5144 -2.3226,-6.7015 -7.1457,-7.6184l-2.5773 -0.4935c-0.8715,-0.1775 -2.3093,-0.3174 -2.1182,-1.306 0.2105,-1.0933 1.781,-1.4117 2.8163,-1.4117 2.5412,0 4.6569,0.8822 6.4632,2.0108l4.5054 -6.8071c-2.8828,-1.5868 -6.1433,-2.3264 -9.8507,-2.3264 -7.0684,0 -14.7769,3.5268 -15.9974,9.8404 -0.8057,4.1624 2.6436,6.3842 7.1253,7.0551l2.3022 0.3509c1.0441,0.1785 2.5754,0.283 2.3432,1.4817 -0.2322,1.1983 -2.1601,1.5864 -3.3247,1.5864 -2.716,0 -5.047,-1.0927 -6.8995,-2.4324l-0.5273 -0.3885 -5.0723 7.5126zm78.5611 -23.913l0 0c-2.3623,-0.7057 -5.0474,-1.0932 -7.7205,-1.0932 -9.5245,0 -18.1818,6.2079 -19.6831,13.9678 -1.4679,7.5835 4.6343,13.4736 13.9013,13.4736 2.1111,0 6.5682,-0.3179 8.6102,-1.0584l2.2691 -9.9458c-2.1919,1.5162 -4.5286,2.4689 -7.2448,2.4689 -3.5325,0 -6.1571,-2.2577 -5.5897,-5.1833 0.5595,-2.8933 3.8914,-5.1849 7.4263,-5.1849 2.6717,0 4.8027,1.2348 6.4217,2.6823l1.6096 -10.127zm18.9098 -1.0932l0 0c9.8678,0 16.9208,5.4315 15.3057,13.7904 -1.6514,8.5353 -10.7015,13.65 -20.6126,13.65 -9.9149,0 -16.9855,-5.1156 -15.3341,-13.65 1.6176,-8.36 10.7719,-13.7904 20.641,-13.7904zm-1.6919 8.7466l0 0c-3.75,0 -6.5353,2.3637 -7.0811,5.1832 -0.5865,3.0344 1.5094,5.1146 5.0879,5.1146 3.577,0 6.4798,-2.0813 7.0664,-5.1146 0.5473,-2.821 -1.3244,-5.1832 -5.0732,-5.1832zm-125.0096 -13.6221l0 0c-2.9476,-0.853 -6.2939,-1.3218 -9.627,-1.3218 -11.8804,0 -22.6784,7.5033 -24.5497,16.8828 -1.8286,9.1666 5.7808,16.285 17.3379,16.285 2.634,0 8.1943,-0.3831 10.7376,-1.2774l2.83 -12.0234c-2.7313,1.8333 -5.6484,2.9847 -9.0357,2.9847 -4.4079,0 -7.6791,-2.7293 -6.9734,-6.2687 0.6978,-3.4951 4.8533,-6.2681 9.2602,-6.2681 3.3325,0 5.9909,1.4928 8.0075,3.2407l2.0126 -12.2338z"/>
   <path class="fil2" d="M171.3672 34.107c0.177,-0.9286 1.2124,-1.6771 2.3379,-1.6771 1.119,0 1.8771,0.7486 1.7014,1.6771 -0.1798,0.9343 -1.2191,1.6828 -2.3392,1.6828 -1.1257,0 -1.8771,-0.7496 -1.7001,-1.6828zm3.5124 0l0 0c0.1417,-0.7477 -0.3946,-1.2384 -1.2583,-1.2384 -0.8783,0 -1.5864,0.4908 -1.727,1.2384 -0.1419,0.7485 0.3784,1.2441 1.2567,1.2441 0.8623,0 1.5853,-0.4946 1.7286,-1.2441zm-0.7204 0.8784l0 0 -0.3676 -0.7428c0.2731,-0.0218 0.5083,-0.1763 0.5663,-0.4773 0.0783,-0.4138 -0.1662,-0.5385 -0.6177,-0.5385l-1.0228 0 -0.3338 1.7585 0.4433 0 0.1418 -0.745 0.3405 0 0.3284 0.745 0.5217 0zm-0.6459 -1.0806l0 0c0.2215,0 0.4121,0 0.4486,-0.188 0.0298,-0.1551 -0.1622,-0.1551 -0.3837,-0.1551l-0.4811 0 -0.0623 0.3431 0.4785 0z"/>
   <path class="fil1" d="M3.2772 50.9038l55.2746 0 -0.0037 -0.0196 -0.0459 0 -0.699 -3.0401 -54.526 0 0 3.0597zm0 -4.3456l0 0 54.23 0 -0.7048 -3.058 -53.5252 0 0 3.058zm0 -4.3629l0 0 53.2074 0 -0.2391 -1.1144 -0.4889 -2.1273 -52.4795 0 0 3.2417zm115.5012 -3.2649l0 0 9.6471 0 -0.6208 3.2665 -4.3955 0 -0.2175 1.1418 4.014 0 -0.5895 3.1076 -4.0143 0 -0.2226 1.1725 4.5471 0 -0.6201 3.2655 -9.8008 0 2.2731 -11.9539z"/>
  </g>
 </g>
</svg>
